<svg xmlns="http://www.w3.org/2000/svg" viewBox="0 0 512 512">
<defs>
<radialGradient id="bg" cx="35%" cy="25%" r="85%">
<stop offset="0%" stop-color="#FFB74D"/>
<stop offset="100%" stop-color="#EF6C00"/>
</radialGradient>
</defs>
<circle cx="256" cy="256" r="256" fill="url(#bg)"/>
<g fill="#111111">
<path d="M164 118h184c18 0 32 14 32 32v28c-38 27-81 43-124 43s-86-16-124-43v-28c0-18 14-32 32-32z"/>
<path d="M154 228c38 17 71 18 102 8l-3 31c-33 10-66 2-99-39z"/>
<path d="M358 228c-38 17-71 18-102 8l3 31c33 10 66 2 99-39z"/>
<rect x="250" y="220" width="12" height="126" rx="2"/>
<path d="M142 268c42 35 80 41 114 19 34 22 72 16 114-19v94c0 18-14 32-32 32H174c-18 0-32-14-32-32z"/>
</g>
</svg>